<?xml version="1.0" standalone="no"?><!DOCTYPE svg PUBLIC "-//W3C//DTD SVG 1.1//EN" "http://www.w3.org/Graphics/SVG/1.1/DTD/svg11.dtd"><svg t="1754292702106" class="icon" viewBox="0 0 1024 1024" version="1.1" xmlns="http://www.w3.org/2000/svg" p-id="8264" xmlns:xlink="http://www.w3.org/1999/xlink" width="256" height="256"><path d="M512 512m-512 0a512 512 0 1 0 1024 0 512 512 0 1 0-1024 0Z" fill="#948BEC" p-id="8265"></path><path d="M307.2 256h204.8c40.96 0 71.68 0 92.16 5.12s35.84 10.24 51.2 20.48 30.72 25.6 40.96 40.96 15.36 35.84 15.36 61.44-5.12 46.08-20.48 66.56-30.72 35.84-51.2 46.08c30.72 10.24 56.32 25.6 71.68 46.08s25.6 46.08 25.6 76.8c0 25.6-5.12 46.08-15.36 66.56s-25.6 40.96-46.08 51.2-40.96 20.48-71.68 25.6c-15.36 0-61.44 5.12-122.88 5.12H307.2V256z m102.4 87.04V460.8h143.36c15.36 0 30.72-10.24 40.96-20.48s15.36-25.6 15.36-40.96c0-15.36-5.12-30.72-15.36-40.96s-20.48-15.36-40.96-20.48H409.6z m0 204.8v138.24h97.28c35.84 0 61.44 0 71.68-5.12 15.36-5.12 25.6-10.24 35.84-20.48s15.36-25.6 15.36-46.08c0-15.36-5.12-30.72-10.24-40.96s-20.48-20.48-30.72-25.6-46.08-5.12-92.16-5.12H409.6z" fill="#FFFFFF" p-id="8266"></path></svg>